<?xml version="1.0" encoding="utf-8"?>
<!-- Generator: Adobe Illustrator 21.0.0, SVG Export Plug-In . SVG Version: 6.00 Build 0)  -->
<svg version="1.1" id="Layer_1" xmlns="http://www.w3.org/2000/svg" xmlns:xlink="http://www.w3.org/1999/xlink" x="0px" y="0px"
	 viewBox="0 0 412.3 76.8" style="enable-background:new 0 0 412.3 76.8;" xml:space="preserve">
<style type="text/css">
	.st0{fill:#FF4338;}
	.st1{fill:#FFFFFF;}
</style>
<g>
	<path class="st0" d="M32.6,43.8l-10,0c-1.2,0-2-0.4-2.2-1.1c-0.1-0.3-0.1-0.6,0.1-1l0-0.1l0,0l0.1-0.2l0,0l0,0L52.3,2.6
		C48,0.9,43.3,0,38.4,0C17.2,0,0,17.2,0,38.4C0,52.6,7.7,65,19.1,71.6l15.5-25.3C35.5,45,34.6,43.8,32.6,43.8z"/>
	<path class="st0" d="M57.8,5.2L42.2,30.5c-0.9,1.4,0.1,2.5,2,2.5l10,0c1.2,0,2,0.4,2.2,1.1c0.1,0.3,0.1,0.6-0.1,1l0,0.1l0,0
		l-0.1,0.2l0,0l0,0L24.5,74.3c4.3,1.7,9,2.6,13.9,2.6c21.2,0,38.4-17.2,38.4-38.4C76.8,24.2,69.2,11.9,57.8,5.2z"/>
	<polygon class="st1" points="97.1,12.1 127.3,12.1 127.3,19.6 105.1,19.6 105.1,33.8 126.2,33.8 126.2,41.4 105.1,41.4 105.1,57.3 
		127.5,57.3 127.5,64.7 97.1,64.7 	"/>
	<polygon class="st1" points="146.1,50.7 138.6,64.7 130.4,64.7 142.3,43.9 131.4,25 140.1,25 147.1,37.3 153.7,25 161.9,25 
		151.1,44.2 162.9,64.7 154.3,64.7 	"/>
	<path class="st1" d="M165.8,25l6.4-0.1l0.6,3.7c1.9-2.6,5.4-4.3,12.3-4.3c11.9,0,13.3,9.7,13.3,20.4c0,11-1.7,20.4-13.6,20.4
		c-6.4,0-9.1-1.3-10.9-3.7v14.4h-8V25z M190.3,45.1c0-8-0.9-13.3-7.8-13.3c-7.9,0-8.7,5.4-8.7,13.3c0,8,0.7,13.1,8.7,13.1
		C189.2,58.3,190.3,53.2,190.3,45.1z"/>
	<path class="st1" d="M219.3,65.2c-13.4,0-16-7.8-16-20.4c0-12.4,3.2-20.4,16.2-20.4c14.2,0,14.3,8.9,14.2,24.3H211
		c0.4,6.5,2,9.8,8.7,9.8c5.2,0,7.9-1.2,10.2-2.3l3.1,6.1C229.7,63.9,225.6,65.2,219.3,65.2z M211,41.7h15.3
		c-0.1-6.5-0.3-10.3-7-10.3C212.8,31.4,211.3,35,211,41.7z"/>
	<path class="st1" d="M239.6,25l6.3,0l0.7,4.2c1.6-2.6,4.6-4.5,11.2-4.5v7.5c-9.6,0.1-10.2,6-10.2,12.8v19.7h-8V25z"/>
	<path class="st1" d="M277.1,64.9c-9.5,0-11.8-3.3-11.8-11.3V32h-4.6v-7h4.9l1.2-10l6.4-1.3V25h9.3v7h-9.3v20.8c0,3.3,0.5,5,4.8,5
		h4.5v7C281.3,64.8,278.2,64.9,277.1,64.9z"/>
	<path class="st1" d="M289.4,12h8.1v8.6h-8.1V12z M289.4,25h8v39.7h-8V25z"/>
	<path class="st1" d="M304.4,44.8c0-12.6,2.9-20.4,16.4-20.4c4.4,0,7.6,0.8,10.2,2.1l-3.5,6.9c-1.9-1-3.9-1.5-6.4-1.5
		c-6.8,0-8.6,4.3-8.6,13.2c0,8.9,1.6,13.3,8.7,13.3c2.9,0,5.2-0.9,7.2-1.8l3.1,6.1c-3.7,1.8-6.7,2.6-11.2,2.6
		C307.3,65.3,304.4,57.4,304.4,44.8z"/>
	<path class="st1" d="M336.4,12h8.1v8.6h-8.1V12z M336.4,25h8v39.7h-8V25z"/>
	<path class="st1" d="M367.7,64.9c-9.5,0-11.8-3.3-11.8-11.3V32h-4.6v-7h4.9l1.2-10l6.4-1.3V25h9.3v7h-9.3v20.8c0,3.3,0.5,5,4.8,5
		h4.5v7C371.8,64.8,368.8,64.9,367.7,64.9z"/>
	<path class="st1" d="M381.3,75.9v-6.5h3.9c2.1,0,2.8-0.6,3.3-2.3l0.7-2.4L377,25h8.2l8.2,28.3l8.1-28.3h7.9l-13.4,43.8
		c-1.8,5.9-4.9,7.1-10.7,7.1H381.3z"/>
	<path class="st1" d="M406.7,62c0-1.7,0.9-2.9,2.8-2.9c1.9,0,2.8,1.2,2.8,2.9s-0.9,2.9-2.8,2.9C407.7,64.8,406.7,63.6,406.7,62z
		 M412,62c0-1.5-0.8-2.5-2.5-2.5s-2.4,1.1-2.4,2.5c0,1.5,0.7,2.5,2.4,2.5S412,63.4,412,62z M408.2,63.8v-3.6h1.6
		c1,0,1.2,0.4,1.2,1.1c0,0.6-0.2,1-0.9,1.1l0.8,1.5h-0.5l-0.8-1.4h-1v1.4H408.2z M409.8,61.9c0.5,0,0.8-0.1,0.8-0.7
		c0-0.5-0.2-0.6-0.8-0.6h-1.1v1.3H409.8z"/>
</g>
</svg>
