<?xml version="1.0" encoding="utf-8"?>
<!-- Generator: Adobe Illustrator 19.1.0, SVG Export Plug-In . SVG Version: 6.00 Build 0)  -->
<svg version="1.1" id="Layer_1" xmlns="http://www.w3.org/2000/svg" xmlns:xlink="http://www.w3.org/1999/xlink" x="0px" y="0px"
	 viewBox="0 0 648.3 159.7" style="enable-background:new 0 0 648.3 159.7;" xml:space="preserve">
<style type="text/css">
	.st0{fill:#FFFFFF;}
</style>
<g>
	<path class="st0" d="M627.8,97.7c-2.7,0-4.8,2.2-4.7,4.8c0,2.7,2.2,4.8,4.9,4.8c2.7,0,4.8-2.2,4.7-4.8
		C632.7,99.8,630.5,97.7,627.8,97.7z M628,106.6c-2.3,0-4.1-1.8-4.1-4.1c0-2.3,1.7-4.1,4-4.1c2.3,0,4.1,1.8,4.1,4.1
		C632,104.8,630.3,106.6,628,106.6z"/>
	<path class="st0" d="M629,102.6c0.3-0.3,0.3-0.6,0.3-1.2c0-0.6-0.1-0.9-0.4-1.2c-0.2-0.2-0.5-0.3-0.9-0.3h-1.4l0.1,5.3h0.7l0-2.2
		h0.6l0.7,2.2h0.7l-0.8-2.4C628.8,102.7,628.9,102.6,629,102.6z M628.4,102.1c-0.1,0.1-0.2,0.1-0.4,0.1h-0.6l0-1.7h0.6
		c0.2,0,0.3,0.1,0.4,0.1c0.1,0.2,0.2,0.4,0.2,0.7C628.6,101.7,628.6,102,628.4,102.1z"/>
	<path class="st0" d="M645.2,18.4l-68.5,3.4c6.1-11.1,10.5-18.9,10.7-19.4c0.8-1.5,0-2.6-1.7-2.3c-1,0.2-13.3,3.1-13.9,3.3
		c-0.6,0.2-1.6,0.5-2.3,1.8c-0.2,0.4-4,7.3-9.4,17.4L490.2,26c-2.1,0.1-2.7-1.1-1.4-2.8l6.8-8.7c1.3-1.6,0.7-2.8-1.4-2.6L408,21.3
		c6-10.8,10.3-18.6,10.5-19c0.8-1.5,0-2.6-1.7-2.3c-1,0.2-13.3,3.1-13.9,3.3c-0.6,0.2-1.6,0.5-2.3,1.8c-0.2,0.4-4.1,7.6-9.7,18
		L338,29c-2,0.2-2.9,1.1-2.9,2.1c0,1.1,0.8,1.9,2.9,1.8l49.4-2.9c-10.1,18.7-23.5,43.6-31.6,58.5c-17.9,11.6-21.8,10.7-21.8,10.7
		c-19.2,1.7,17-33,17-33c4.3-8.7-0.2-11.4-0.2-11.4c-24,4.4-29.3-1.7-29.4-1.7c0,0.1,0,0.2-0.1,0.3c0.7-3,0.9-6,0.1-8.7
		c0,0-1.5-5.8-9.5-5c0,0-7.9,0.7-8.6,9.1c0,0-0.9,5.3,4.5,12.3c-7.8,17.9-22.6,29-28.4,32.4c-5.7,3.3-12.1,5.7-16.1,6.5
		c-4.4,0.9-20.5,4.2-18.6-10c4-0.8,19.5-5.4,26.2-8.4c5.9-2.6,12.6-6.2,16.8-11.9c3.6-4.8,6-14.4-3.9-18.9c-8-3.6-24.3,0.1-35.3,8.1
		c-11.3,8.3-16,15.3-19,23.5c-0.5,1.5-1,2.9-1.4,4.4c-3.9,0.9-8.3,2.1-13.3,3.4c1.7-2.2,8.5-13.4,9.2-23.4
		c0.8-9.8-5.4-16.7-16.2-17.1c-17.3,0-29.6,15.3-29.6,15.3s6.3-9.9-3.4-14.9c-0.7-0.4-1.6-0.1-2.2,1c0,0-10.8,19.6-23,41.9
		c-5.1,2.6-22.4,10.9-24.7,3.7c-1.3-4.2-2-8.6-2.3-11.1c8.9-6.4,36.5-34.3,36.5-34.3c1.3-1.4-0.6-1.4-0.7-1.4l-1.8,0l-0.2,0
		c-2.7,0-8.6,0-9.8,0c-1.2,0.1-2.4,0.4-3.3,1.4c-1.4,1.6-12,13.8-22.1,22.7c-1-10.2-2.1-21.9-2.2-22.5c-0.2-1.3-0.4-1.8-2-1.8
		c-1,0-11.1,0.4-12,0.5c-0.9,0.1-1.6,0.6-1.5,2.1c0.1,1.1,2.5,19.6,4.2,31.8c-6.9,4.7-11.2,7.1-16.4,9.7c-4,2-19.5,7.3-30.1,7.1
		c-7.9-0.1-14.7-3.9-13.6-10.4c3.9-1,14.7-3.9,22.5-7.3c7.4-3.2,19.7-9.5,22.4-17.4c2.6-7.7-2.1-12.6-5.9-14.4
		c-3.5-1.7-13.4-3.5-27,2.5c-13.6,6-20.5,15-23.4,19.2c-3.2,4.5-5.3,9.8-6.3,13.5C19.5,88.3,5.3,89.9,4.3,90
		c-4.9,0.6-4.9,0.6-3.3,2.5c3.3,3.7,5.7,7.2,8.5,6.7c0,0,9.7-2,20.7-4.7c0.7,5.6,3.5,9.5,5.9,11.7c5.5,5,15.8,8.3,29.2,6.3
		c18.5-2.9,35-12.8,43.8-18.4c0.5,4.1,2,11.3,2.2,12.8c1.2,5.9,8.3,5.7,8.3,5.7c7.2,0.2,17.6-4.8,23.3-7.9
		c-14.2,25.8-28.2,51.4-28.7,52.3c-1.2,2.4,0.1,2.9,1.9,2.6c1.8-0.3,11.2-2.4,12.7-3c1.5-0.6,2.3-0.9,3.4-3.2
		c0.9-1.7,23.5-43.7,33.9-62.9c0,0,5.4-9.9,15.3-19c6.6-6,15.5-12.5,22.9-10.8c1.1,0.3,5.4,1.8,3.9,8.2l0,0c0,0-3.4,16-17.6,26
		c-5.1,1.3-10.5,2.7-15,4.5c-6.9,2.9-10.7,6.8-10.3,10.4c0.4,4,5.4,4.9,12.9,3.9c6.2-0.8,13.6-3.8,19-7.2c3.7-2.3,7-4.6,8.1-5.6
		c9.6-3,16.6-5,21.5-6.4c0.2,3.8,1.3,7.5,3.8,10.9c4.4,6.1,12.9,7.9,21.4,7.7c13.6-0.4,21.5-5.4,28.2-9.2c7.9-4.6,25.1-20.2,35.6-38
		c3,1.3,5.5,2.5,14.2,2.3l0,0c-3.4,3.6-14.9,17.7-18.9,32.2c-4.1,14.9,14.4,12.8,23.7,9.1c3.3-1.3,7.8-3.5,12.7-6.1
		c-5.5,11,8.6,9.3,15.5,7.5c9.9-2.6,18-6.4,23.4-9.3c-0.1,0.5-2.5,7.4,1.9,9.8c2.9,1.6,9,0.5,11.1,0.1c3.1-0.6,9.5-2.5,13.6-4.1
		c3.3-1.2,7.1-2.8,13.4-5.9c3.2,7.9,12.5,11.5,23.1,11.5c8.6,0,19.2-2.9,31.8-10.1c1.8-1,3.5-2.1,5.1-3.2c-0.5,1.2-0.8,2.3-1,3.1
		c-0.7,3.3-0.5,7,2.2,8.5c2.9,1.6,9,0.5,11.1,0.1c3.1-0.6,9.5-2.5,13.6-4.1c0.9-0.3,1.8-0.7,2.8-1.1c-1.6,7.7,10.4,6.2,16.6,4.6
		c10.3-2.7,18.7-6.7,24-9.6c-0.2,0.6-0.4,1.2-0.5,1.6c-0.7,3.3-0.5,7,2.2,8.5c2.9,1.6,9,0.5,11.1,0.1c3.1-0.6,9.5-2.5,13.6-4.1
		c2.1-0.8,4.3-1.6,7.2-2.9c-14.1,25.6-28.3,51.3-29,52.6c-1.2,2.4,0.1,2.9,1.9,2.6c1.8-0.3,11.3-2.4,12.8-3c1.5-0.6,2.3-0.9,3.4-3.2
		c0,0,53.3-99,54.2-100.9c0.9-1.9,0.1-2.9-2-2.8c-1.9,0.2-9.5,1.4-10.6,1.6c-1.2,0.3-1.9,0.7-2.5,1.8c-1.7,3-10.5,19-20.7,37.5
		c-3.3,2.1-6.8,4.6-9.4,5.9c-12.7,6.4-17.8,4.4-15.5-1.2c0.2-0.4,23-42.2,23.7-43.6c0.8-1.5-0.2-2.4-1.5-2.3
		c-1.2,0.1-9.9,1.2-11.3,1.4c-1.2,0.2-1.8,0.9-2.3,1.7c-0.5,0.8-15,27.7-18.6,34.5c-5.3,3.2-13.5,7.5-17.6,9.1
		c-1.8,0.7-11.4,4-6.1-5.3c6.6-12.1,22.3-40.7,34.1-62.2l72.4-6.7c2-0.2,3.2-0.8,3.2-2.2C648.3,18.7,647.3,18.3,645.2,18.4z
		 M254.1,69.3c2.6-2.8,11.2-9.7,17-8.8c4.3,0.6,4.3,4,3.1,6.4c-1.2,2.3-3.9,4.9-10.2,8.3c-7,3.8-12.8,5.6-18.4,7.2
		C248.1,76.2,251.5,72.3,254.1,69.3z M56.2,71.3c1.5-1.8,5.2-5.3,8.1-7.2c2.5-1.7,7.1-4,10.8-3.8c3,0.2,5.3,2.8,3.8,6.3
		c-1.4,3.2-7.6,6.8-14.4,9.9c-5,2.3-10.5,4.1-14.8,5.5C50.9,78.3,54.6,73.2,56.2,71.3z M521.1,94.8c-1.2,0.7-2.3,1.4-3.3,1.9
		c-12.7,6.4-17.8,4.4-15.5-1.2c0.2-0.4,23-42.2,23.7-43.6c0.8-1.5-0.2-2.4-1.5-2.3c-1.2,0.1-9.9,1.2-11.3,1.4
		c-1.2,0.2-1.8,0.9-2.3,1.7c-0.4,0.7-12.9,23.7-17.6,32.6c-14.2,10-28.4,17.5-40.4,16.3c-12.8-1.3-11.6-13-7.6-21.7
		c3.7-8.2,11.1-13.9,13.8-16c2.5-2,6.9-4.7,9.7-4.7c3.5,0,4.1,2.8,3.3,4.7c-0.7,1.9-4.7,8-6.1,10.1c-0.2,0.4-0.6,1.5,0.9,1.6
		c5.1-0.3,10.5-1.5,13-2.4c0.8-0.3,1.3-0.8,1.6-1.1c4.8-5.3,5.5-12.2,5.3-13.4c-0.2-2.5-1.6-5.9-6.4-8l0,0c-1.9-0.8-5.5-1.2-8.4-1.2
		c-25.5,0-41.1,27.2-41.1,27.2c-3.2,5.6-4.9,10.5-5.5,14.8c-2.7,1.8-5.4,3.6-7.6,4.7c-12.7,6.4-17.4,4.9-15.1-0.7
		c0.2-0.4,23-42.2,23.7-43.6c0.8-1.5-0.2-2.4-1.5-2.3c-1.2,0.1-9.9,1.2-11.3,1.4c-1.2,0.2-1.8,0.9-2.3,1.7
		c-0.5,0.8-15.7,29-18.8,34.9c-5.3,3.2-12.9,7.1-16.8,8.6c-1.8,0.7-11.4,4-6.1-5.3c6.5-12.1,22.3-40.6,34.1-62.1l64.4-3.8
		c2.1-0.1,2.7,1.1,1.4,2.8l-6.5,8.3c-1.3,1.6-0.6,2.8,1.4,2.6l91.2-8.4C544.2,52.1,528.1,81.8,521.1,94.8z"/>
</g>
</svg>
