<?xml version="1.0" encoding="utf-8"?>
<!-- Generator: Adobe Illustrator 19.0.1, SVG Export Plug-In . SVG Version: 6.00 Build 0)  -->
<svg version="1.1" id="Layer_1" xmlns="http://www.w3.org/2000/svg" xmlns:xlink="http://www.w3.org/1999/xlink" x="0px" y="0px"
	 viewBox="73 302 712 146" style="enable-background:new 73 302 712 146;" xml:space="preserve">
<style type="text/css">
	.st0{fill:#FFFFFF;}
</style>
<path class="st0" d="M79.9,412.9v-90.2c0-2.9,1-5.4,3.1-7.5s4.5-3.1,7.5-3.1h38.4c10.9,0,19,2.3,24.3,7c5.5,4.9,8.2,12,8.2,21.4
	c0,6.3-1.4,11.4-4.1,15.5c-2.3,3.9-6.1,6.7-11.1,8.5c4.5,1.6,7.6,3.9,9.4,7c1.8,2.9,2.8,7.9,3.2,14.9l0.6,12c0,1.2,0,2.4,0,3.8
	s0.1,2.6,0.3,3.8c0.6,3.5,1.8,5.8,3.5,6.7h-22.9c-1-2-1.6-4-1.8-6.2c-0.4-3.1-0.6-5.3-0.6-6.4l-0.3-10.8c-0.4-5.9-1.6-10.1-3.5-12.6
	c-2.2-2.1-6-3.2-11.4-3.2h-22v39.4H79.9z M100.7,356.1H125c5.3,0,9.2-1.1,11.7-3.2s3.8-5.5,3.8-10s-1.3-7.8-3.8-10
	c-2.3-2.3-5.9-3.5-10.5-3.5h-25.5V356.1z"/>
<path class="st0" d="M221.4,388.9H236c-2.2,8.2-6.3,14.5-12.3,18.8c-6.1,4.5-13.7,6.7-22.9,6.7c-11.1,0-19.8-3.6-26.1-10.8
	c-6.3-7-9.4-17.1-9.4-30.2c0-12.5,3-22.3,9.1-29.3c6.2-7.2,14.9-10.8,26.1-10.8c11.7,0,20.8,3.5,27.2,10.5
	c6.2,7.2,9.4,17.3,9.4,30.2c0,0.8,0,1.5,0,2.1s0,1,0,1.2c0,1-0.1,1.7-0.3,2.1h-50.7c0.2,6.1,1.7,10.5,4.4,13.5
	c2.5,3.1,6.3,4.7,11.4,4.7c3.3,0,6.2-0.7,8.5-2.1c0.6-0.2,1.1-0.5,1.6-1s1-1,1.6-1.6c0.2-0.6,0.9-1.4,2.2-2.3
	C217.3,389.4,219.1,388.9,221.4,388.9z M186.2,366h29.9c-0.4-5.3-1.8-9.2-4.1-11.7c-2.5-2.7-6.2-4.1-10.8-4.1
	c-4.3,0-7.8,1.4-10.5,4.1C187.9,357,186.4,360.9,186.2,366z"/>
<path class="st0" d="M290.3,409.7c-4.1,2.2-8.5,3.5-13,4c-4.6,0.5-8.6,0.7-12.2,0.7c-7,0-13.2-1.9-18.5-5.7
	c-5.3-3.8-7.9-10.1-7.9-18.9c0-8.2,2.4-14.1,7.2-17.6s10.9-5.9,18.3-7c1,0,2.1-0.1,3.5-0.4s2.9-0.5,4.7-0.7
	c8.6-1.2,12.9-3.7,12.9-7.6c0-2.9-1.5-4.8-4.5-5.7c-3-0.9-5.8-1.3-8.3-1.3c-2.7,0-5.2,0.4-7.3,1.2c-2.2,0.8-3.7,2.2-4.7,4.4h-19.6
	c0.8-6.1,3.5-11,8.2-14.9c5.3-4.5,12.8-6.7,22.6-6.7c10.9,0,19.1,1.9,24.6,5.6c5.7,3.9,8.5,9.4,8.5,16.4v26.7
	c0,7.8-1.4,13.9-4.2,18.3C297.5,404.6,294.2,407.7,290.3,409.7z M285.6,373.6c-2.7,1.4-6.5,2.6-11.4,3.8l-6.7,1.5
	c-3.5,1-6.1,2.2-7.6,3.8c-1.4,2.2-2.1,4.3-2.1,6.4c0,2.9,0.9,5.3,2.6,7c1.8,1.6,4.3,2.3,7.6,2.3c5.5,0,9.8-1.6,12.9-4.7
	s4.7-7.4,4.7-12.9V373.6z"/>
<path class="st0" d="M359.1,311.8h10c2.7,0,5.1,1,7,3.1c2,2.1,2.9,4.3,2.9,6.9v57.1c0,13.9-4,23.2-12,28.1s-16.7,7.3-26.1,7.3
	c-5.1,0-10.1-0.8-14.9-2.5c-4.9-1.7-8.8-4.3-11.7-8.1c-5.7-7.2-8.5-17.1-8.5-29.6c0-12.3,2.8-22.2,8.5-29.6
	c5.9-7.6,13.4-11.4,22.6-11.4c4.9,0,9.2,1,12.9,2.9c3.9,2.3,7,5.4,9.4,9.1L359.1,311.8L359.1,311.8z M325.7,373.3
	c0,7.8,1.5,13.8,4.4,17.9s7.1,6.2,12.6,6.2c5.3,0,9.4-2.1,12.3-6.2c2.7-4.1,4.1-10.1,4.1-17.9c0-7-1.5-12.6-4.4-16.7
	c-3.1-3.9-7.3-5.9-12.6-5.9c-5.1,0-9.1,2.1-12,6.2C327.2,360.9,325.7,366.3,325.7,373.3z"/>
<path class="st0" d="M393.7,440.4v-16.1h5.6c3.9,0,7-0.9,9.2-2.8s2.7-4.8,1.3-8.9L382.6,335h22.6l15.8,55.1l13.8-48
	c1.2-4.7,4.3-7,9.4-7h14.1l-29.9,88.8c-2.3,6.4-5.3,11-8.8,13.8c-3.5,2.3-9.3,3.5-17.3,3.5c-0.6,0-1.3,0-2.1,0c-0.8,0-1.5,0-2.1,0
	c-0.6-0.2-1.3-0.3-2.2-0.4C395,440.5,394.3,440.4,393.7,440.4z"/>
<path class="st0" d="M482.4,376.9v36h-20.8v-90.2c0-2.9,1-5.4,3.1-7.5s4.5-3.1,7.5-3.1h34.3c10.7,0,18.8,2.7,24,8.2
	c5.5,5.5,8.2,13.6,8.2,24.3c0,10.2-2.6,18.2-7.9,24c-5.3,5.5-12.9,8.2-22.9,8.2h-25.5V376.9z M482.4,358.7h20.2
	c5.5,0,9.4-1.2,11.7-3.5c2.5-2.1,3.8-5.9,3.8-11.1c0-4.5-1.2-8.1-3.5-10.8c-2.7-2.3-6.3-3.5-10.8-3.5h-21.4L482.4,358.7L482.4,358.7
	z"/>
<path class="st0" d="M610.5,335v45.7c0,13.9-3.6,23-10.8,27.2c-7.2,4.3-15.1,6.4-23.7,6.4c-8.4-0.4-16.1-2.7-23-7
	s-10.4-13.2-10.4-26.7V335h20.5v49.8c0,4.7,1.4,8.1,4.1,10.3c2.7,2.2,5.9,3.2,9.4,3.2s6.7-1.1,9.5-3.2c2.8-2.1,4.2-5.6,4.2-10.3
	v-39.9c0-2.7,0.9-5.1,2.8-7c1.9-2,4.2-2.9,7.2-2.9H610.5z"/>
<path class="st0" d="M614.6,312.1h10.5c2.7,0,5.1,0.9,7,2.8c2,1.9,2.9,4.2,2.9,6.9v91.1h-20.5L614.6,312.1L614.6,312.1z"/>
<path class="st0" d="M636.8,387.1h19.9c0.2,3.9,1.7,6.8,4.4,8.8c2.9,2,6.8,2.9,11.7,2.9c3.5,0,6.5-0.7,9.1-2.1
	c2.3-1.4,3.5-3.2,3.5-5.6c0-3.5-4.1-6.2-12.3-7.9c-3.5-0.6-6.2-1.2-7.9-1.8c-10.4-2.5-17.3-5.6-20.8-9.1c-3.9-3.5-5.9-8.2-5.9-14.1
	c0-7.4,2.8-13.6,8.5-18.5c5.9-4.5,13.5-6.7,22.9-6.7c10.2,0,18.3,2.2,24.3,6.7c5.7,4.9,8.7,11.2,9.1,19h-12.6c-3.7,0-6.5-1.7-8.5-5
	c-0.8-0.8-1.6-1.6-2.3-2.3c-2.3-1.8-5.6-2.6-9.7-2.6c-3.9,0-6.8,0.6-8.8,1.8c-1.8,1.2-2.6,2.9-2.6,5.3c0,3.1,5.1,5.8,15.2,7.9
	c1.2,0.4,2.2,0.7,3.1,0.9c0.9,0.2,1.7,0.3,2.5,0.3c10,2.5,16.9,5.5,20.8,8.8c3.7,3.5,5.6,8.2,5.6,14.1c0,8.6-3.1,15.2-9.4,19.9
	c-5.9,4.3-14.6,6.4-26.4,6.4c-11.1,0-19.4-2.2-24.9-6.7c-5.7-4.5-8.5-11-8.5-19.6L636.8,387.1L636.8,387.1z"/>
<path class="st0" d="M763.4,388.9H778c-2.2,8.2-6.3,14.5-12.3,18.8c-6.1,4.5-13.7,6.7-22.9,6.7c-11.1,0-19.8-3.6-26.1-10.8
	c-6.3-7-9.4-17.1-9.4-30.2c0-12.5,3-22.3,9.1-29.3c6.2-7.2,14.9-10.8,26.1-10.8c11.7,0,20.8,3.5,27.2,10.5
	c6.2,7.2,9.4,17.3,9.4,30.2c0,0.8,0,1.5,0,2.1s0,1,0,1.2c0,1-0.1,1.7-0.3,2.1h-50.7c0.2,6.1,1.7,10.5,4.4,13.5
	c2.5,3.1,6.3,4.7,11.4,4.7c3.3,0,6.2-0.7,8.5-2.1c0.6-0.2,1.1-0.5,1.6-1s1-1,1.6-1.6c0.2-0.6,0.9-1.4,2.2-2.3
	C759.2,389.4,761.1,388.9,763.4,388.9z M728.2,366h29.9c-0.4-5.3-1.8-9.2-4.1-11.7c-2.5-2.7-6.2-4.1-10.8-4.1
	c-4.3,0-7.8,1.4-10.5,4.1C729.9,357,728.4,360.9,728.2,366z"/>
</svg>
